<?xml version="1.0" encoding="UTF-8" standalone="no"?>
<!-- Created with Inkscape (http://www.inkscape.org/) -->

<svg
   width="120mm"
   height="120mm"
   viewBox="0 0 120 120"
   version="1.1"
   id="svg1"
   inkscape:version="1.3 (0e150ed, 2023-07-21)"
   sodipodi:docname="search-map.svg"
   inkscape:export-filename="search-map.png"
   inkscape:export-xdpi="203.2"
   inkscape:export-ydpi="203.2"
   xmlns:inkscape="http://www.inkscape.org/namespaces/inkscape"
   xmlns:sodipodi="http://sodipodi.sourceforge.net/DTD/sodipodi-0.dtd"
   xmlns="http://www.w3.org/2000/svg"
   xmlns:svg="http://www.w3.org/2000/svg">
  <sodipodi:namedview
     id="namedview1"
     pagecolor="#ffffff"
     bordercolor="#ffffff"
     borderopacity="1"
     inkscape:showpageshadow="0"
     inkscape:pageopacity="0"
     inkscape:pagecheckerboard="1"
     inkscape:deskcolor="#505050"
     inkscape:document-units="mm"
     inkscape:zoom="0.88753522"
     inkscape:cx="246.18741"
     inkscape:cy="308.72014"
     inkscape:window-width="1792"
     inkscape:window-height="1067"
     inkscape:window-x="0"
     inkscape:window-y="25"
     inkscape:window-maximized="0"
     inkscape:current-layer="layer1" />
  <defs
     id="defs1" />
  <g
     inkscape:label="Layer 1"
     inkscape:groupmode="layer"
     id="layer1">
    <g
       id="g8"
       transform="rotate(-45,35.854042,27.57516)"
       style="stroke:#56b4e9;stroke-opacity:1">
      <path
         d="m 34.982878,59.580343 c 0.355753,-0.0595 0.711589,-0.117747 1.062984,-0.189653 0.488231,-0.09991 0.972314,-0.212067 1.451591,-0.33538 0.479277,-0.123312 0.953991,-0.25802 1.423686,-0.40411 0.469694,-0.14609 0.93423,-0.303566 1.393713,-0.471805 0.459483,-0.16824 0.914064,-0.347158 1.362707,-0.536919 0.448644,-0.18976 0.891426,-0.390344 1.328601,-0.600997 0.437176,-0.210652 0.868382,-0.431574 1.293462,-0.662491 0.425079,-0.230917 0.843899,-0.471884 1.256254,-0.722437 0.412355,-0.250553 0.818494,-0.510753 1.217496,-0.780314 0.399003,-0.269561 0.791135,-0.548185 1.176156,-0.836125 0.385021,-0.28794 0.762852,-0.58521 1.133264,-0.890901 0.370412,-0.305691 0.733132,-0.619765 1.088306,-0.942579 0.355174,-0.322813 0.703006,-0.653913 1.042313,-0.993221 0.339308,-0.339307 0.670408,-0.687139 0.993221,-1.042313 0.322814,-0.355174 0.636888,-0.717894 0.942579,-1.088306 0.305691,-0.370412 0.602961,-0.748243 0.890901,-1.133264 0.28794,-0.385021 0.566564,-0.777153 0.836125,-1.176156 0.269561,-0.399002 0.529761,-0.805141 0.780314,-1.217496 0.250553,-0.412355 0.49152,-0.831175 0.722437,-1.256254 0.230917,-0.42508 0.451839,-0.856286 0.662491,-1.293462 0.210653,-0.437175 0.411237,-0.879957 0.600997,-1.328601 0.189761,-0.448643 0.368679,-0.903224 0.536919,-1.362707 0.168239,-0.459483 0.325715,-0.924019 0.471805,-1.393713 0.14609,-0.469695 0.280798,-0.944409 0.40411,-1.423686 0.123313,-0.479277 0.235473,-0.96336 0.33538,-1.451591 0.09991,-0.488232 0.187677,-0.980355 0.26355,-1.476913 0.07587,-0.496557 0.139476,-0.997461 0.190686,-1.501717 0.05121,-0.504255 0.09035,-1.012096 0.116272,-1.523421 0.02592,-0.511325 0.03876,-1.025809 0.03876,-1.543575 0,-0.517766 -0.01284,-1.032767 -0.03876,-1.544092 -0.02592,-0.511325 -0.06506,-1.019165 -0.116272,-1.523421 -0.05121,-0.504256 -0.114814,-1.004643 -0.190686,-1.5012 -0.07587,-0.496558 -0.163643,-0.989198 -0.26355,-1.47743 -0.09991,-0.488231 -0.212067,-0.972314 -0.33538,-1.451591 -0.123312,-0.479276 -0.25802,-0.953991 -0.40411,-1.423685 -0.14609,-0.469694 -0.303566,-0.934231 -0.471805,-1.393714 -0.16824,-0.459482 -0.347158,-0.914064 -0.536919,-1.362707 -0.18976,-0.448644 -0.390344,-0.891426 -0.600997,-1.328601 -0.210652,-0.437176 -0.431574,-0.868382 -0.662491,-1.293461 -0.230917,-0.42508 -0.471884,-0.843899 -0.722437,-1.256254 -0.250553,-0.412355 -0.510753,-0.818495 -0.780314,-1.217497 -0.269561,-0.399002 -0.548185,-0.791135 -0.836125,-1.176156 -0.28794,-0.385021 -0.58521,-0.762852 -0.890901,-1.133264 C 52.84352,10.546751 52.529446,10.184031 52.206632,9.8288574 51.883819,9.4736835 51.552719,9.1258517 51.213411,8.7865438 50.874104,8.4472359 50.526272,8.1161363 50.171098,7.7933228 49.815924,7.4705092 49.453204,7.1564355 49.082792,6.8507446 48.71238,6.5450537 48.334549,6.2477828 47.949528,5.9598429 47.564507,5.671903 47.172375,5.3932788 46.773372,5.1237183 46.37437,4.8541577 45.968231,4.5939571 45.555876,4.3434041 45.143521,4.0928512 44.724701,3.8518846 44.299622,3.6209676 43.874542,3.3900506 43.443336,3.1691285 43.00616,2.9584757 42.568985,2.747823 42.126203,2.547239 41.677559,2.3574788 41.228916,2.1677187 40.774335,1.9887999 40.314852,1.8205607 39.855369,1.6523215 39.390833,1.4948449 38.921139,1.3487549 38.451444,1.2026649 37.97673,1.0679577 37.497453,0.94464518 37.018176,0.82133271 36.534093,0.70917175 36.045862,0.60926514 35.55763,0.50935852 35.065507,0.42158777 34.568949,0.34571533 34.072392,0.26984289 33.571488,0.20623924 33.067232,0.1550293 32.562977,0.10381935 32.055136,0.06519322 31.543811,0.03927409 31.032486,0.01335496 30.518002,0 30.000236,0 29.48247,0 28.967469,0.01335496 28.456144,0.03927409 27.944819,0.06519322 27.436979,0.10381935 26.932723,0.1550293 26.428467,0.2062392 25.92808,0.26984289 25.431523,0.34571533 24.934965,0.42158773 24.442325,0.50935852 23.954093,0.60926514 23.465862,0.70917174 22.981779,0.82133271 22.502502,0.94464518 22.023226,1.0679577 21.548511,1.2026649 21.078817,1.3487549 20.609123,1.4948449 20.144586,1.6523215 19.685103,1.8205607 19.225621,1.9887999 18.771039,2.1677187 18.322396,2.3574788 17.873752,2.547239 17.43097,2.747823 16.993795,2.9584757 16.556619,3.1691285 16.125413,3.3900506 15.700334,3.6209676 15.275254,3.8518846 14.856435,4.0928512 14.44408,4.3434041 14.031725,4.5939571 13.625585,4.8541577 13.226583,5.1237183 12.827581,5.3932788 12.435448,5.671903 12.050427,5.9598429 11.665406,6.2477828 11.287575,6.5450537 10.917163,6.8507446 10.546751,7.1564355 10.184031,7.4705092 9.8288574,7.7933228 9.4736835,8.1161363 9.1258517,8.4472359 8.7865438,8.7865438 8.4472359,9.1258517 8.1161363,9.4736835 7.7933228,9.8288574 7.4705092,10.184031 7.1564355,10.546751 6.8507446,10.917163 6.5450537,11.287575 6.2477828,11.665406 5.9598429,12.050427 5.671903,12.435448 5.3932788,12.827581 5.1237183,13.226583 4.8541577,13.625585 4.5939571,14.031725 4.3434041,14.44408 4.0928512,14.856435 3.8518846,15.275254 3.6209676,15.700334 3.3900506,16.125413 3.1691285,16.556619 2.9584757,16.993795 2.747823,17.43097 2.547239,17.873752 2.3574788,18.322396 c -0.1897601,0.448643 -0.3686789,0.903225 -0.5369181,1.362707 -0.1682392,0.459483 -0.3257158,0.92402 -0.4718058,1.393714 -0.14609,0.469694 -0.2807972,0.944409 -0.40410972,1.423685 -0.12331247,0.479277 -0.23547343,0.96336 -0.33538004,1.451591 -0.0999066,0.488232 -0.18767737,0.980872 -0.26354981,1.47743 -0.0758724,0.496557 -0.13947609,0.996944 -0.19068603,1.5012 -0.05121,0.504256 -0.08983608,1.012096 -0.11575521,1.523421 C 0.01335496,28.967469 0,29.48247 0,30.000236 c 0,0.517766 0.01335496,1.03225 0.03927409,1.543575 0.02591913,0.511325 0.06454526,1.019166 0.11575521,1.523421 0.0512099,0.504256 0.11481359,1.00516 0.19068603,1.501717 0.0758724,0.496558 0.16364319,0.988681 0.26354981,1.476913 0.0999066,0.488231 0.21206757,0.972314 0.33538004,1.451591 0.12331252,0.479277 0.25801972,0.953991 0.40410972,1.423686 0.14609,0.469694 0.3035666,0.93423 0.4718058,1.393713 0.1682392,0.459483 0.347158,0.914064 0.5369181,1.362707 0.1897602,0.448644 0.3903442,0.891426 0.6009969,1.328601 0.2106528,0.437176 0.4315749,0.868382 0.6624919,1.293462 0.230917,0.425079 0.4718836,0.843899 0.7224365,1.256254 0.250553,0.412355 0.5107536,0.818494 0.7803142,1.217496 0.2695605,0.399003 0.5481847,0.791135 0.8361246,1.176156 0.2879399,0.385021 0.5852108,0.762852 0.8909017,1.133264 0.3056909,0.370412 0.6197646,0.733132 0.9425782,1.088306 0.3228135,0.355174 0.6539131,0.703006 0.993221,1.042313 0.3393079,0.339308 0.6871396,0.670408 1.0423136,0.993221 0.3551736,0.322814 0.7178936,0.636888 1.0883056,0.942579 0.370412,0.305691 0.748243,0.602961 1.133264,0.890901 0.385021,0.28794 0.777154,0.566564 1.176156,0.836125 0.399002,0.269561 0.805142,0.529761 1.217497,0.780314 0.412355,0.250553 0.831174,0.49152 1.256254,0.722437 0.425079,0.230917 0.856285,0.451839 1.293461,0.662491 0.437175,0.210653 0.879957,0.411237 1.328601,0.600997 0.448643,0.189761 0.903225,0.368679 1.362707,0.536919 0.459483,0.168239 0.92402,0.325715 1.393714,0.471805 0.469694,0.14609 0.944409,0.280798 1.423685,0.40411 0.479277,0.123313 0.96336,0.235473 1.451591,0.33538 0.351276,0.07188 0.707353,0.130167 1.062985,0.189653"
         style="fill:none;stroke:#56b4e9;stroke-width:2;stroke-linecap:round;stroke-linejoin:round;stroke-opacity:1"
         id="path6"
         sodipodi:nodetypes="csssssssssssssssssssssssssssssssssssssssssssssssssssssssssssssssssssssssssssssssssssssssssssssssssssssssssssssssssssssssssc" />
      <path
         style="fill:none;stroke:#56b4e9;stroke-width:2;stroke-linecap:round;stroke-linejoin:round;stroke-opacity:1"
         d="m 35,59.580399 v 24"
         id="path2-3" />
      <path
         style="fill:none;stroke:#56b4e9;stroke-width:2;stroke-linecap:round;stroke-linejoin:round;stroke-opacity:1"
         d="M 40,89.580399 V 137.5804"
         id="path2-3-9" />
      <path
         style="fill:none;stroke:#56b4e9;stroke-width:2;stroke-linecap:round;stroke-linejoin:round;stroke-opacity:1"
         d="M 20,89.580399 V 137.5804"
         id="path2-3-9-0" />
      <path
         style="fill:none;stroke:#56b4e9;stroke-width:2;stroke-linecap:round;stroke-linejoin:round;stroke-opacity:1"
         d="m 25,59.580399 v 24"
         id="path2-3-8" />
      <path
         style="fill:none;stroke:#56b4e9;stroke-width:2;stroke-linecap:round;stroke-linejoin:round;stroke-opacity:1"
         d="M 25,92.580399 H 20"
         id="path2-0-4" />
      <path
         style="fill:none;stroke:#56b4e9;stroke-width:2;stroke-linecap:round;stroke-linejoin:round;stroke-opacity:1"
         d="M 25,104.5804 H 20"
         id="path2-0-0-8" />
      <path
         style="fill:none;stroke:#56b4e9;stroke-width:2;stroke-linecap:round;stroke-linejoin:round;stroke-opacity:1"
         d="M 25,116.5804 H 20"
         id="path2-0-0-9-8" />
      <path
         style="fill:none;stroke:#56b4e9;stroke-width:2;stroke-linecap:round;stroke-linejoin:round;stroke-opacity:1"
         d="M 25,98.580399 H 20"
         id="path2-0-0-98-4" />
      <path
         style="fill:none;stroke:#56b4e9;stroke-width:2;stroke-linecap:round;stroke-linejoin:round;stroke-opacity:1"
         d="M 25,110.5804 H 20"
         id="path2-0-0-9-6-5" />
      <path
         style="fill:none;stroke:#56b4e9;stroke-width:2;stroke-linecap:round;stroke-linejoin:round;stroke-opacity:1"
         d="M 25,122.5804 H 20"
         id="path2-0-4-6" />
      <path
         style="fill:none;stroke:#56b4e9;stroke-width:2;stroke-linecap:round;stroke-linejoin:round;stroke-opacity:1"
         d="M 25,134.5804 H 20"
         id="path2-0-0-8-7" />
      <path
         style="fill:none;stroke:#56b4e9;stroke-width:2;stroke-linecap:round;stroke-linejoin:round;stroke-opacity:1"
         d="M 25,128.5804 H 20"
         id="path2-0-0-98-4-5" />
      <path
         style="fill:none;stroke:#56b4e9;stroke-width:2;stroke-linecap:round;stroke-linejoin:round;stroke-opacity:1"
         d="M 40,92.580399 H 35"
         id="path2-0-4-9" />
      <path
         style="fill:none;stroke:#56b4e9;stroke-width:2;stroke-linecap:round;stroke-linejoin:round;stroke-opacity:1"
         d="M 40,104.5804 H 35"
         id="path2-0-0-8-1" />
      <path
         style="fill:none;stroke:#56b4e9;stroke-width:2;stroke-linecap:round;stroke-linejoin:round;stroke-opacity:1"
         d="M 40,116.5804 H 35"
         id="path2-0-0-9-8-3" />
      <path
         style="fill:none;stroke:#56b4e9;stroke-width:2;stroke-linecap:round;stroke-linejoin:round;stroke-opacity:1"
         d="M 40,98.580399 H 35"
         id="path2-0-0-98-4-8" />
      <path
         style="fill:none;stroke:#56b4e9;stroke-width:2;stroke-linecap:round;stroke-linejoin:round;stroke-opacity:1"
         d="M 40,110.5804 H 35"
         id="path2-0-0-9-6-5-8" />
      <path
         style="fill:none;stroke:#56b4e9;stroke-width:2;stroke-linecap:round;stroke-linejoin:round;stroke-opacity:1"
         d="M 40,122.5804 H 35"
         id="path2-0-4-6-9" />
      <path
         style="fill:none;stroke:#56b4e9;stroke-width:2;stroke-linecap:round;stroke-linejoin:round;stroke-opacity:1"
         d="M 40,134.5804 H 35"
         id="path2-0-0-8-7-4" />
      <path
         style="fill:none;stroke:#56b4e9;stroke-width:2;stroke-linecap:round;stroke-linejoin:round;stroke-opacity:1"
         d="M 40,128.5804 H 35"
         id="path2-0-0-98-4-5-3" />
      <path
         style="fill:none;stroke:#56b4e9;stroke-width:2;stroke-linecap:round;stroke-linejoin:round;stroke-opacity:1"
         d="m 25,83.580397 -5,6.000001"
         id="path3" />
      <path
         style="fill:none;stroke:#56b4e9;stroke-width:2;stroke-linecap:round;stroke-linejoin:round;stroke-opacity:1"
         d="M 26.341,89.781231 22.5,86.580398"
         id="path3-4" />
      <path
         style="fill:none;stroke:#56b4e9;stroke-width:2;stroke-linecap:round;stroke-linejoin:round;stroke-opacity:1"
         d="M 33.659,89.781231 37.5,86.580398"
         id="path3-4-6" />
      <path
         style="fill:none;stroke:#56b4e9;stroke-width:2;stroke-linecap:round;stroke-linejoin:round;stroke-opacity:1"
         d="m 35,83.580398 5,6.000001"
         id="path3-5" />
      <path
         style="fill:none;stroke:#56b4e9;stroke-width:2;stroke-linecap:round;stroke-linejoin:round;stroke-opacity:1"
         d="M 30,62.580399 H 25"
         id="path2-0-0-9-8-9" />
      <path
         style="fill:none;stroke:#56b4e9;stroke-width:2;stroke-linecap:round;stroke-linejoin:round;stroke-opacity:1"
         d="M 30,68.580399 H 25"
         id="path2-0-4-6-5" />
      <path
         style="fill:none;stroke:#56b4e9;stroke-width:2;stroke-linecap:round;stroke-linejoin:round;stroke-opacity:1"
         d="M 30,80.580399 H 25"
         id="path2-0-0-8-7-3" />
      <path
         style="fill:none;stroke:#56b4e9;stroke-width:2;stroke-linecap:round;stroke-linejoin:round;stroke-opacity:1"
         d="M 30,74.580399 H 25"
         id="path2-0-0-98-4-5-1" />
      <path
         style="fill:none;stroke:#56b4e9;stroke-width:2;stroke-linecap:round;stroke-linejoin:round;stroke-opacity:1"
         d="M 35,62.580399 H 30"
         id="path2-0-0-9-8-9-9" />
      <path
         style="fill:none;stroke:#56b4e9;stroke-width:2;stroke-linecap:round;stroke-linejoin:round;stroke-opacity:1"
         d="M 35,68.580399 H 30"
         id="path2-0-4-6-5-1" />
      <path
         style="fill:none;stroke:#56b4e9;stroke-width:2;stroke-linecap:round;stroke-linejoin:round;stroke-opacity:1"
         d="M 30,5 V 0"
         id="path2-0-4-6-5-1-0-7-1" />
      <path
         style="fill:none;stroke:#56b4e9;stroke-width:2;stroke-linecap:round;stroke-linejoin:round;stroke-opacity:1"
         d="m 4.0192379,45 4.330127,-2.5"
         id="path2-0-4-6-5-1-0-0-8" />
      <path
         style="fill:none;stroke:#56b4e9;stroke-width:2;stroke-linecap:round;stroke-linejoin:round;stroke-opacity:1"
         d="M 51.650635,17.5 55.980762,15"
         id="path2-0-4-6-5-1-0-7-1-7" />
      <path
         style="fill:none;stroke:#56b4e9;stroke-width:2;stroke-linecap:round;stroke-linejoin:round;stroke-opacity:1"
         d="m 4.0192379,15 4.330127,2.5"
         id="path2-0-4-6-5-1-0-0-7" />
      <path
         style="fill:none;stroke:#56b4e9;stroke-width:2;stroke-linecap:round;stroke-linejoin:round;stroke-opacity:1"
         d="M 51.650635,42.5 55.980762,45"
         id="path2-0-4-6-5-1-0-7-1-0" />
      <path
         style="fill:none;stroke:#56b4e9;stroke-width:2;stroke-linecap:round;stroke-linejoin:round;stroke-opacity:1"
         d="m 15,55.980762 2.5,-4.330127"
         id="path2-0-4-6-5-1-0-0-5" />
      <path
         style="fill:none;stroke:#56b4e9;stroke-width:2;stroke-linecap:round;stroke-linejoin:round;stroke-opacity:1"
         d="M 42.5,8.3493649 45,4.0192376"
         id="path2-0-4-6-5-1-0-7-1-1" />
      <path
         style="fill:none;stroke:#56b4e9;stroke-width:2;stroke-linecap:round;stroke-linejoin:round;stroke-opacity:1"
         d="M 2.3322599e-8,30 H 5"
         id="path2-0-4-6-5-1-0-0-8-1" />
      <path
         style="fill:none;stroke:#56b4e9;stroke-width:2;stroke-linecap:round;stroke-linejoin:round;stroke-opacity:1"
         d="m 55,30 h 5"
         id="path2-0-4-6-5-1-0-7-1-7-6" />
      <path
         style="fill:none;stroke:#56b4e9;stroke-width:2;stroke-linecap:round;stroke-linejoin:round;stroke-opacity:1"
         d="m 15,4.0192379 2.5,4.330127"
         id="path2-0-4-6-5-1-0-0-7-1" />
      <path
         style="fill:none;stroke:#56b4e9;stroke-width:2;stroke-linecap:round;stroke-linejoin:round;stroke-opacity:1"
         d="M 42.5,51.650635 45,55.980762"
         id="path2-0-4-6-5-1-0-7-1-0-9" />
      <path
         style="fill:none;stroke:#56b4e9;stroke-width:2;stroke-linecap:round;stroke-linejoin:round;stroke-opacity:1"
         d="m 22.235429,58.977775 1.294095,-4.829629"
         id="path2-0-4-6-5-1-0-0-58" />
      <path
         style="fill:none;stroke:#56b4e9;stroke-width:2;stroke-linecap:round;stroke-linejoin:round;stroke-opacity:1"
         d="M 36.470476,5.851854 37.764571,1.0222249"
         id="path2-0-4-6-5-1-0-7-1-4" />
      <path
         style="fill:none;stroke:#56b4e9;stroke-width:2;stroke-linecap:round;stroke-linejoin:round;stroke-opacity:1"
         d="M 1.0222253,37.764571 5.8518544,36.470476"
         id="path2-0-4-6-5-1-0-0-8-2" />
      <path
         style="fill:none;stroke:#56b4e9;stroke-width:2;stroke-linecap:round;stroke-linejoin:round;stroke-opacity:1"
         d="m 54.148146,23.529524 4.829629,-1.294095"
         id="path2-0-4-6-5-1-0-7-1-7-5" />
      <path
         style="fill:none;stroke:#56b4e9;stroke-width:2;stroke-linecap:round;stroke-linejoin:round;stroke-opacity:1"
         d="M 8.7867966,8.7867965 12.322331,12.32233"
         id="path2-0-4-6-5-1-0-0-7-0" />
      <path
         style="fill:none;stroke:#56b4e9;stroke-width:2;stroke-linecap:round;stroke-linejoin:round;stroke-opacity:1"
         d="m 47.677669,47.677669 3.535534,3.535534"
         id="path2-0-4-6-5-1-0-7-1-0-7" />
      <path
         style="fill:none;stroke:#56b4e9;stroke-width:2;stroke-linecap:round;stroke-linejoin:round;stroke-opacity:1"
         d="M 8.7867966,51.213203 12.32233,47.677669"
         id="path2-0-4-6-5-1-0-0-5-0" />
      <path
         style="fill:none;stroke:#56b4e9;stroke-width:2;stroke-linecap:round;stroke-linejoin:round;stroke-opacity:1"
         d="M 47.677669,12.322331 51.213204,8.786796"
         id="path2-0-4-6-5-1-0-7-1-1-7" />
      <path
         style="fill:none;stroke:#56b4e9;stroke-width:2;stroke-linecap:round;stroke-linejoin:round;stroke-opacity:1"
         d="m 1.0222255,22.235429 4.8296288,1.294095"
         id="path2-0-4-6-5-1-0-0-8-1-6" />
      <path
         style="fill:none;stroke:#56b4e9;stroke-width:2;stroke-linecap:round;stroke-linejoin:round;stroke-opacity:1"
         d="m 54.148146,36.470476 4.829629,1.294095"
         id="path2-0-4-6-5-1-0-7-1-7-6-8" />
      <path
         style="fill:none;stroke:#56b4e9;stroke-width:2;stroke-linecap:round;stroke-linejoin:round;stroke-opacity:1"
         d="m 22.235429,1.0222249 1.294095,4.8296295"
         id="path2-0-4-6-5-1-0-0-7-1-2" />
      <path
         style="fill:none;stroke:#56b4e9;stroke-width:2;stroke-linecap:round;stroke-linejoin:round;stroke-opacity:1"
         d="m 36.470476,54.148146 1.294095,4.829629"
         id="path2-0-4-6-5-1-0-7-1-0-9-3" />
      <path
         style="fill:none;stroke:#56b4e9;stroke-width:2;stroke-linecap:round;stroke-linejoin:round;stroke-opacity:1"
         d="M 35,80.580399 H 30"
         id="path2-0-0-8-7-3-9" />
      <path
         style="fill:none;stroke:#56b4e9;stroke-width:2;stroke-linecap:round;stroke-linejoin:round;stroke-opacity:1"
         d="M 35,74.580399 H 30"
         id="path2-0-0-98-4-5-1-0" />
    </g>
    <g
       id="g3"
       transform="rotate(-45,35.347542,27.784961)"
       style="stroke:#d55e00;stroke-opacity:1">
      <path
         style="fill:none;stroke:#d55e00;stroke-width:2;stroke-linecap:round;stroke-linejoin:round;stroke-opacity:1"
         d="m 30,90 v 48"
         id="path2" />
      <path
         style="fill:none;stroke:#d55e00;stroke-width:2;stroke-linecap:round;stroke-linejoin:round;stroke-opacity:1"
         d="M 30,93 H 25"
         id="path2-0-4-1" />
      <path
         style="fill:none;stroke:#d55e00;stroke-width:2;stroke-linecap:round;stroke-linejoin:round;stroke-opacity:1"
         d="M 30,105 H 25"
         id="path2-0-0-8-8" />
      <path
         style="fill:none;stroke:#d55e00;stroke-width:2;stroke-linecap:round;stroke-linejoin:round;stroke-opacity:1"
         d="M 30,117 H 25"
         id="path2-0-0-9-8-2" />
      <path
         style="fill:none;stroke:#d55e00;stroke-width:2;stroke-linecap:round;stroke-linejoin:round;stroke-opacity:1"
         d="M 30,99 H 25"
         id="path2-0-0-98-4-6" />
      <path
         style="fill:none;stroke:#d55e00;stroke-width:2;stroke-linecap:round;stroke-linejoin:round;stroke-opacity:1"
         d="M 30,111 H 25"
         id="path2-0-0-9-6-5-0" />
      <path
         style="fill:none;stroke:#d55e00;stroke-width:2;stroke-linecap:round;stroke-linejoin:round;stroke-opacity:1"
         d="M 30,123 H 25"
         id="path2-0-4-6-3" />
      <path
         style="fill:none;stroke:#d55e00;stroke-width:2;stroke-linecap:round;stroke-linejoin:round;stroke-opacity:1"
         d="M 30,135 H 25"
         id="path2-0-0-8-7-9" />
      <path
         style="fill:none;stroke:#d55e00;stroke-width:2;stroke-linecap:round;stroke-linejoin:round;stroke-opacity:1"
         d="M 30,129 H 25"
         id="path2-0-0-98-4-5-4" />
    </g>
  </g>
</svg>
