<?xml version="1.0" encoding="UTF-8"?>
<!DOCTYPE svg PUBLIC "-//W3C//DTD SVG 1.1//EN" 
"http://www.w3.org/Graphics/SVG/1.1/DTD/svg11.dtd">

<svg width="100%" height="100%" version="1.1"
xmlns="http://www.w3.org/2000/svg">
<line x1="15.0" y1="180.5" x2="15.0" y2="180.5" stroke="rgb(35%, 35%, 35%)" stroke-width="1.0" />
<line x1="25.0" y1="180.5" x2="25.0" y2="180.5" stroke="rgb(35%, 35%, 35%)" stroke-width="1.0" />
<line x1="35.0" y1="180.5" x2="35.0" y2="180.5" stroke="rgb(35%, 35%, 35%)" stroke-width="1.0" />
<line x1="45.0" y1="180.5" x2="45.0" y2="180.5" stroke="rgb(35%, 35%, 35%)" stroke-width="1.0" />
<line x1="55.0" y1="180.5" x2="55.0" y2="180.5" stroke="rgb(35%, 35%, 35%)" stroke-width="1.0" />
<line x1="65.0" y1="180.5" x2="65.0" y2="180.5" stroke="rgb(35%, 35%, 35%)" stroke-width="1.0" />
<line x1="75.0" y1="180.5" x2="75.0" y2="180.5" stroke="rgb(35%, 35%, 35%)" stroke-width="1.0" />
<line x1="85.0" y1="180.5" x2="85.0" y2="180.5" stroke="rgb(35%, 35%, 35%)" stroke-width="1.0" />
<line x1="95.0" y1="180.5" x2="95.0" y2="180.5" stroke="rgb(35%, 35%, 35%)" stroke-width="1.0" />
<line x1="105.0" y1="180.5" x2="105.0" y2="180.5" stroke="rgb(35%, 35%, 35%)" stroke-width="1.0" />
<line x1="115.0" y1="180.5" x2="115.0" y2="180.5" stroke="rgb(35%, 35%, 35%)" stroke-width="1.0" />
<line x1="125.0" y1="180.5" x2="125.0" y2="180.5" stroke="rgb(35%, 35%, 35%)" stroke-width="1.0" />
<line x1="135.0" y1="180.5" x2="135.0" y2="180.5" stroke="rgb(35%, 35%, 35%)" stroke-width="1.0" />
<line x1="145.0" y1="180.5" x2="145.0" y2="180.5" stroke="rgb(35%, 35%, 35%)" stroke-width="1.0" />
<line x1="155.0" y1="180.5" x2="155.0" y2="180.5" stroke="rgb(35%, 35%, 35%)" stroke-width="1.0" />
<line x1="165.0" y1="180.5" x2="165.0" y2="180.5" stroke="rgb(35%, 35%, 35%)" stroke-width="1.0" />
<line x1="175.0" y1="180.5" x2="175.0" y2="180.5" stroke="rgb(35%, 35%, 35%)" stroke-width="1.0" />
<line x1="185.0" y1="180.5" x2="185.0" y2="180.5" stroke="rgb(35%, 35%, 35%)" stroke-width="1.0" />
<line x1="195.0" y1="180.5" x2="195.0" y2="180.5" stroke="rgb(35%, 35%, 35%)" stroke-width="1.0" />
<line x1="205.0" y1="180.5" x2="205.0" y2="180.5" stroke="rgb(35%, 35%, 35%)" stroke-width="1.0" />
<line x1="215.0" y1="180.5" x2="215.0" y2="180.5" stroke="rgb(35%, 35%, 35%)" stroke-width="1.0" />
<line x1="225.0" y1="180.5" x2="225.0" y2="180.5" stroke="rgb(35%, 35%, 35%)" stroke-width="1.0" />
<line x1="235.0" y1="180.5" x2="235.0" y2="180.5" stroke="rgb(35%, 35%, 35%)" stroke-width="1.0" />
<line x1="245.0" y1="180.5" x2="245.0" y2="180.5" stroke="rgb(35%, 35%, 35%)" stroke-width="1.0" />
<line x1="255.0" y1="180.5" x2="255.0" y2="180.5" stroke="rgb(35%, 35%, 35%)" stroke-width="1.0" />
<line x1="265.0" y1="180.5" x2="265.0" y2="180.5" stroke="rgb(35%, 35%, 35%)" stroke-width="1.0" />
<line x1="275.0" y1="180.5" x2="275.0" y2="180.5" stroke="rgb(35%, 35%, 35%)" stroke-width="1.0" />
<line x1="285.0" y1="180.5" x2="285.0" y2="180.5" stroke="rgb(35%, 35%, 35%)" stroke-width="1.0" />
<line x1="295.0" y1="180.5" x2="295.0" y2="180.5" stroke="rgb(35%, 35%, 35%)" stroke-width="1.0" />
<line x1="305.0" y1="180.5" x2="305.0" y2="180.5" stroke="rgb(35%, 35%, 35%)" stroke-width="1.0" />
<line x1="315.0" y1="180.5" x2="315.0" y2="180.5" stroke="rgb(35%, 35%, 35%)" stroke-width="1.0" />
<line x1="325.0" y1="180.5" x2="325.0" y2="180.5" stroke="rgb(35%, 35%, 35%)" stroke-width="1.0" />
<line x1="335.0" y1="180.5" x2="335.0" y2="180.5" stroke="rgb(35%, 35%, 35%)" stroke-width="1.0" />
<line x1="345.0" y1="180.5" x2="345.0" y2="180.5" stroke="rgb(35%, 35%, 35%)" stroke-width="1.0" />
<line x1="355.0" y1="180.5" x2="355.0" y2="180.5" stroke="rgb(35%, 35%, 35%)" stroke-width="1.0" />
<line x1="365.0" y1="180.5" x2="365.0" y2="180.5" stroke="rgb(35%, 35%, 35%)" stroke-width="1.0" />
<line x1="375.0" y1="180.5" x2="375.0" y2="180.5" stroke="rgb(35%, 35%, 35%)" stroke-width="1.0" />
<line x1="385.0" y1="180.5" x2="385.0" y2="180.5" stroke="rgb(35%, 35%, 35%)" stroke-width="1.0" />
<line x1="395.0" y1="180.5" x2="395.0" y2="180.5" stroke="rgb(35%, 35%, 35%)" stroke-width="1.0" />
<line x1="405.0" y1="180.5" x2="405.0" y2="180.5" stroke="rgb(35%, 35%, 35%)" stroke-width="1.0" />
<line x1="415.0" y1="180.5" x2="415.0" y2="180.5" stroke="rgb(35%, 35%, 35%)" stroke-width="1.0" />
<line x1="425.0" y1="180.5" x2="425.0" y2="180.5" stroke="rgb(35%, 35%, 35%)" stroke-width="1.0" />
<line x1="435.0" y1="180.5" x2="435.0" y2="180.5" stroke="rgb(35%, 35%, 35%)" stroke-width="1.0" />
<line x1="445.0" y1="180.5" x2="445.0" y2="180.5" stroke="rgb(35%, 35%, 35%)" stroke-width="1.0" />
<line x1="455.0" y1="180.5" x2="455.0" y2="180.5" stroke="rgb(35%, 35%, 35%)" stroke-width="1.0" />
<line x1="465.0" y1="180.5" x2="465.0" y2="180.5" stroke="rgb(35%, 35%, 35%)" stroke-width="1.0" />
<line x1="475.0" y1="180.5" x2="475.0" y2="180.5" stroke="rgb(35%, 35%, 35%)" stroke-width="1.0" />
<line x1="485.0" y1="180.5" x2="485.0" y2="180.5" stroke="rgb(35%, 35%, 35%)" stroke-width="1.0" />
<line x1="495.0" y1="180.5" x2="495.0" y2="180.5" stroke="rgb(35%, 35%, 35%)" stroke-width="1.0" />
<line x1="505.0" y1="180.5" x2="505.0" y2="180.5" stroke="rgb(35%, 35%, 35%)" stroke-width="1.0" />
<line x1="515.0" y1="180.5" x2="515.0" y2="180.5" stroke="rgb(35%, 35%, 35%)" stroke-width="1.0" />
<line x1="525.0" y1="180.5" x2="525.0" y2="180.5" stroke="rgb(35%, 35%, 35%)" stroke-width="1.0" />
<line x1="535.0" y1="180.5" x2="535.0" y2="180.5" stroke="rgb(35%, 35%, 35%)" stroke-width="1.0" />
<line x1="545.0" y1="180.5" x2="545.0" y2="180.5" stroke="rgb(35%, 35%, 35%)" stroke-width="1.0" />
<line x1="555.0" y1="180.5" x2="555.0" y2="180.5" stroke="rgb(35%, 35%, 35%)" stroke-width="1.0" />
<line x1="565.0" y1="180.5" x2="565.0" y2="180.5" stroke="rgb(35%, 35%, 35%)" stroke-width="1.0" />
<line x1="575.0" y1="180.5" x2="575.0" y2="180.5" stroke="rgb(35%, 35%, 35%)" stroke-width="1.0" />
<line x1="585.0" y1="180.5" x2="585.0" y2="180.5" stroke="rgb(35%, 35%, 35%)" stroke-width="1.0" />
<line x1="595.0" y1="180.5" x2="595.0" y2="180.5" stroke="rgb(35%, 35%, 35%)" stroke-width="1.0" />
<line x1="605.0" y1="180.5" x2="605.0" y2="180.5" stroke="rgb(35%, 35%, 35%)" stroke-width="1.0" />
<line x1="615.0" y1="180.5" x2="615.0" y2="180.5" stroke="rgb(35%, 35%, 35%)" stroke-width="1.0" />
<line x1="625.0" y1="180.5" x2="625.0" y2="180.5" stroke="rgb(35%, 35%, 35%)" stroke-width="1.0" />
<line x1="635.0" y1="180.5" x2="635.0" y2="180.5" stroke="rgb(35%, 35%, 35%)" stroke-width="1.0" />
<line x1="645.0" y1="180.5" x2="645.0" y2="180.5" stroke="rgb(35%, 35%, 35%)" stroke-width="1.0" />
<line x1="655.0" y1="180.5" x2="655.0" y2="180.5" stroke="rgb(35%, 35%, 35%)" stroke-width="1.0" />
<line x1="665.0" y1="180.5" x2="665.0" y2="180.5" stroke="rgb(35%, 35%, 35%)" stroke-width="1.0" />
<line x1="675.0" y1="180.5" x2="675.0" y2="180.5" stroke="rgb(35%, 35%, 35%)" stroke-width="1.0" />
<line x1="685.0" y1="180.5" x2="685.0" y2="180.5" stroke="rgb(35%, 35%, 35%)" stroke-width="1.0" />
<path d="M 30.0,180.5 A 135.0,87.75 0 0,1 300.0,180.5" style="fill:none; stroke:rgb(0%, 0%, 100%); stroke-width:1.0"/>
<path d="M 40.0,180.5 A 125.0,81.25 0 0,1 290.0,180.5" style="fill:none; stroke:rgb(0%, 0%, 100%); stroke-width:1.0"/>
<path d="M 50.0,180.5 A 115.0,74.75 0 0,1 280.0,180.5" style="fill:none; stroke:rgb(0%, 0%, 100%); stroke-width:1.0"/>
<path d="M 60.0,180.5 A 105.0,68.25 0 0,1 270.0,180.5" style="fill:none; stroke:rgb(0%, 0%, 100%); stroke-width:1.0"/>
<path d="M 70.0,180.5 A 95.0,61.75 0 0,1 260.0,180.5" style="fill:none; stroke:rgb(0%, 0%, 100%); stroke-width:1.0"/>
<path d="M 80.0,180.5 A 85.0,55.25 0 0,1 250.0,180.5" style="fill:none; stroke:rgb(0%, 0%, 100%); stroke-width:1.0"/>
<path d="M 90.0,180.5 A 75.0,48.75 0 0,1 240.0,180.5" style="fill:none; stroke:rgb(0%, 0%, 100%); stroke-width:1.0"/>
<path d="M 100.0,180.5 A 65.0,42.25 0 0,1 230.0,180.5" style="fill:none; stroke:rgb(0%, 0%, 100%); stroke-width:1.0"/>
<path d="M 110.0,180.5 A 55.0,35.75 0 0,1 220.0,180.5" style="fill:none; stroke:rgb(0%, 0%, 100%); stroke-width:1.0"/>
<path d="M 130.0,180.5 A 40.0,26.0 0 0,1 210.0,180.5" style="fill:none; stroke:rgb(0%, 0%, 100%); stroke-width:1.0"/>
<path d="M 140.0,180.5 A 30.0,19.5 0 0,1 200.0,180.5" style="fill:none; stroke:rgb(0%, 0%, 100%); stroke-width:1.0"/>
<path d="M 320.0,180.5 A 135.0,87.75 0 0,1 590.0,180.5" style="fill:none; stroke:rgb(0%, 0%, 100%); stroke-width:1.0"/>
<path d="M 330.0,180.5 A 125.0,81.25 0 0,1 580.0,180.5" style="fill:none; stroke:rgb(0%, 0%, 100%); stroke-width:1.0"/>
<path d="M 340.0,180.5 A 115.0,74.75 0 0,1 570.0,180.5" style="fill:none; stroke:rgb(0%, 0%, 100%); stroke-width:1.0"/>
<path d="M 350.0,180.5 A 105.0,68.25 0 0,1 560.0,180.5" style="fill:none; stroke:rgb(0%, 0%, 100%); stroke-width:1.0"/>
<path d="M 360.0,180.5 A 95.0,61.75 0 0,1 550.0,180.5" style="fill:none; stroke:rgb(0%, 0%, 100%); stroke-width:1.0"/>
<path d="M 370.0,180.5 A 85.0,55.25 0 0,1 540.0,180.5" style="fill:none; stroke:rgb(0%, 0%, 100%); stroke-width:1.0"/>
<path d="M 380.0,180.5 A 70.0,45.5 0 0,1 520.0,180.5" style="fill:none; stroke:rgb(0%, 0%, 100%); stroke-width:1.0"/>
<path d="M 390.0,180.5 A 60.0,39.0 0 0,1 510.0,180.5" style="fill:none; stroke:rgb(0%, 0%, 100%); stroke-width:1.0"/>
<path d="M 400.0,180.5 A 50.0,32.5 0 0,1 500.0,180.5" style="fill:none; stroke:rgb(0%, 0%, 100%); stroke-width:1.0"/>
<path d="M 150.0,180.5 A 270.0,175.5 0 0,1 690.0,180.5" style="fill:none; stroke:rgb(0%, 0%, 100%); stroke-width:1.0"/>
<path d="M 160.0,180.5 A 260.0,169.0 0 0,1 680.0,180.5" style="fill:none; stroke:rgb(0%, 0%, 100%); stroke-width:1.0"/>
<path d="M 170.0,180.5 A 250.0,162.5 0 0,1 670.0,180.5" style="fill:none; stroke:rgb(0%, 0%, 100%); stroke-width:1.0"/>
<path d="M 180.0,180.5 A 240.0,156.0 0 0,1 660.0,180.5" style="fill:none; stroke:rgb(0%, 0%, 100%); stroke-width:1.0"/>
<path d="M 190.0,180.5 A 230.0,149.5 0 0,1 650.0,180.5" style="fill:none; stroke:rgb(0%, 0%, 100%); stroke-width:1.0"/>
<circle cx="10.0" cy="180.5" r="5.0" stroke="none" stroke-width="1.0" fill="rgb(94%, 94%, 94%)"/>
<circle cx="10.0" cy="180.5" r="5.0" stroke="rgb(35%, 35%, 35%)" stroke-width="1.0" fill="none"/>
<text x="10.0" y="183.5" text-anchor="middle" font-family="Verdana" font-size="7.5" fill="rgb(0%, 0%, 0%)" >U</text>
<circle cx="20.0" cy="180.5" r="5.0" stroke="none" stroke-width="1.0" fill="rgb(94%, 94%, 94%)"/>
<circle cx="20.0" cy="180.5" r="5.0" stroke="rgb(35%, 35%, 35%)" stroke-width="1.0" fill="none"/>
<text x="20.0" y="183.5" text-anchor="middle" font-family="Verdana" font-size="7.5" fill="rgb(0%, 0%, 0%)" >G</text>
<circle cx="30.0" cy="180.5" r="5.0" stroke="none" stroke-width="1.0" fill="rgb(94%, 94%, 94%)"/>
<circle cx="30.0" cy="180.5" r="5.0" stroke="rgb(35%, 35%, 35%)" stroke-width="1.0" fill="none"/>
<text x="30.0" y="183.5" text-anchor="middle" font-family="Verdana" font-size="7.5" fill="rgb(0%, 0%, 0%)" >C</text>
<circle cx="40.0" cy="180.5" r="5.0" stroke="none" stroke-width="1.0" fill="rgb(94%, 94%, 94%)"/>
<circle cx="40.0" cy="180.5" r="5.0" stroke="rgb(35%, 35%, 35%)" stroke-width="1.0" fill="none"/>
<text x="40.0" y="183.5" text-anchor="middle" font-family="Verdana" font-size="7.5" fill="rgb(0%, 0%, 0%)" >G</text>
<circle cx="50.0" cy="180.5" r="5.0" stroke="none" stroke-width="1.0" fill="rgb(94%, 94%, 94%)"/>
<circle cx="50.0" cy="180.5" r="5.0" stroke="rgb(35%, 35%, 35%)" stroke-width="1.0" fill="none"/>
<text x="50.0" y="183.5" text-anchor="middle" font-family="Verdana" font-size="7.5" fill="rgb(0%, 0%, 0%)" >G</text>
<circle cx="60.0" cy="180.5" r="5.0" stroke="none" stroke-width="1.0" fill="rgb(94%, 94%, 94%)"/>
<circle cx="60.0" cy="180.5" r="5.0" stroke="rgb(35%, 35%, 35%)" stroke-width="1.0" fill="none"/>
<text x="60.0" y="183.5" text-anchor="middle" font-family="Verdana" font-size="7.5" fill="rgb(0%, 0%, 0%)" >U</text>
<circle cx="70.0" cy="180.5" r="5.0" stroke="none" stroke-width="1.0" fill="rgb(94%, 94%, 94%)"/>
<circle cx="70.0" cy="180.5" r="5.0" stroke="rgb(35%, 35%, 35%)" stroke-width="1.0" fill="none"/>
<text x="70.0" y="183.5" text-anchor="middle" font-family="Verdana" font-size="7.5" fill="rgb(0%, 0%, 0%)" >G</text>
<circle cx="80.0" cy="180.5" r="5.0" stroke="none" stroke-width="1.0" fill="rgb(94%, 94%, 94%)"/>
<circle cx="80.0" cy="180.5" r="5.0" stroke="rgb(35%, 35%, 35%)" stroke-width="1.0" fill="none"/>
<text x="80.0" y="183.5" text-anchor="middle" font-family="Verdana" font-size="7.5" fill="rgb(0%, 0%, 0%)" >U</text>
<circle cx="90.0" cy="180.5" r="5.0" stroke="none" stroke-width="1.0" fill="rgb(94%, 94%, 94%)"/>
<circle cx="90.0" cy="180.5" r="5.0" stroke="rgb(35%, 35%, 35%)" stroke-width="1.0" fill="none"/>
<text x="90.0" y="183.5" text-anchor="middle" font-family="Verdana" font-size="7.5" fill="rgb(0%, 0%, 0%)" >A</text>
<circle cx="100.0" cy="180.5" r="5.0" stroke="none" stroke-width="1.0" fill="rgb(94%, 94%, 94%)"/>
<circle cx="100.0" cy="180.5" r="5.0" stroke="rgb(35%, 35%, 35%)" stroke-width="1.0" fill="none"/>
<text x="100.0" y="183.5" text-anchor="middle" font-family="Verdana" font-size="7.5" fill="rgb(0%, 0%, 0%)" >A</text>
<circle cx="110.0" cy="180.5" r="5.0" stroke="none" stroke-width="1.0" fill="rgb(94%, 94%, 94%)"/>
<circle cx="110.0" cy="180.5" r="5.0" stroke="rgb(35%, 35%, 35%)" stroke-width="1.0" fill="none"/>
<text x="110.0" y="183.5" text-anchor="middle" font-family="Verdana" font-size="7.5" fill="rgb(0%, 0%, 0%)" >G</text>
<circle cx="120.0" cy="180.5" r="5.0" stroke="none" stroke-width="1.0" fill="rgb(94%, 94%, 94%)"/>
<circle cx="120.0" cy="180.5" r="5.0" stroke="rgb(35%, 35%, 35%)" stroke-width="1.0" fill="none"/>
<text x="120.0" y="183.5" text-anchor="middle" font-family="Verdana" font-size="7.5" fill="rgb(0%, 0%, 0%)" >U</text>
<circle cx="130.0" cy="180.5" r="5.0" stroke="none" stroke-width="1.0" fill="rgb(94%, 94%, 94%)"/>
<circle cx="130.0" cy="180.5" r="5.0" stroke="rgb(35%, 35%, 35%)" stroke-width="1.0" fill="none"/>
<text x="130.0" y="183.5" text-anchor="middle" font-family="Verdana" font-size="7.5" fill="rgb(0%, 0%, 0%)" >G</text>
<circle cx="140.0" cy="180.5" r="5.0" stroke="none" stroke-width="1.0" fill="rgb(94%, 94%, 94%)"/>
<circle cx="140.0" cy="180.5" r="5.0" stroke="rgb(35%, 35%, 35%)" stroke-width="1.0" fill="none"/>
<text x="140.0" y="183.5" text-anchor="middle" font-family="Verdana" font-size="7.5" fill="rgb(0%, 0%, 0%)" >C</text>
<circle cx="150.0" cy="180.5" r="5.0" stroke="none" stroke-width="1.0" fill="rgb(94%, 94%, 94%)"/>
<circle cx="150.0" cy="180.5" r="5.0" stroke="rgb(35%, 35%, 35%)" stroke-width="1.0" fill="none"/>
<text x="150.0" y="183.5" text-anchor="middle" font-family="Verdana" font-size="7.5" fill="rgb(0%, 0%, 0%)" >A</text>
<circle cx="160.0" cy="180.5" r="5.0" stroke="none" stroke-width="1.0" fill="rgb(94%, 94%, 94%)"/>
<circle cx="160.0" cy="180.5" r="5.0" stroke="rgb(35%, 35%, 35%)" stroke-width="1.0" fill="none"/>
<text x="160.0" y="183.5" text-anchor="middle" font-family="Verdana" font-size="7.5" fill="rgb(0%, 0%, 0%)" >G</text>
<circle cx="170.0" cy="180.5" r="5.0" stroke="none" stroke-width="1.0" fill="rgb(94%, 94%, 94%)"/>
<circle cx="170.0" cy="180.5" r="5.0" stroke="rgb(35%, 35%, 35%)" stroke-width="1.0" fill="none"/>
<text x="170.0" y="183.5" text-anchor="middle" font-family="Verdana" font-size="7.5" fill="rgb(0%, 0%, 0%)" >C</text>
<circle cx="180.0" cy="180.5" r="5.0" stroke="none" stroke-width="1.0" fill="rgb(94%, 94%, 94%)"/>
<circle cx="180.0" cy="180.5" r="5.0" stroke="rgb(35%, 35%, 35%)" stroke-width="1.0" fill="none"/>
<text x="180.0" y="183.5" text-anchor="middle" font-family="Verdana" font-size="7.5" fill="rgb(0%, 0%, 0%)" >C</text>
<circle cx="190.0" cy="180.5" r="5.0" stroke="none" stroke-width="1.0" fill="rgb(94%, 94%, 94%)"/>
<circle cx="190.0" cy="180.5" r="5.0" stroke="rgb(35%, 35%, 35%)" stroke-width="1.0" fill="none"/>
<text x="190.0" y="183.5" text-anchor="middle" font-family="Verdana" font-size="7.5" fill="rgb(0%, 0%, 0%)" >C</text>
<circle cx="200.0" cy="180.5" r="5.0" stroke="none" stroke-width="1.0" fill="rgb(94%, 94%, 94%)"/>
<circle cx="200.0" cy="180.5" r="5.0" stroke="rgb(35%, 35%, 35%)" stroke-width="1.0" fill="none"/>
<text x="200.0" y="183.5" text-anchor="middle" font-family="Verdana" font-size="7.5" fill="rgb(0%, 0%, 0%)" >G</text>
<circle cx="210.0" cy="180.5" r="5.0" stroke="none" stroke-width="1.0" fill="rgb(94%, 94%, 94%)"/>
<circle cx="210.0" cy="180.5" r="5.0" stroke="rgb(35%, 35%, 35%)" stroke-width="1.0" fill="none"/>
<text x="210.0" y="183.5" text-anchor="middle" font-family="Verdana" font-size="7.5" fill="rgb(0%, 0%, 0%)" >U</text>
<circle cx="220.0" cy="180.5" r="5.0" stroke="none" stroke-width="1.0" fill="rgb(94%, 94%, 94%)"/>
<circle cx="220.0" cy="180.5" r="5.0" stroke="rgb(35%, 35%, 35%)" stroke-width="1.0" fill="none"/>
<text x="220.0" y="183.5" text-anchor="middle" font-family="Verdana" font-size="7.5" fill="rgb(0%, 0%, 0%)" >C</text>
<circle cx="230.0" cy="180.5" r="5.0" stroke="none" stroke-width="1.0" fill="rgb(94%, 94%, 94%)"/>
<circle cx="230.0" cy="180.5" r="5.0" stroke="rgb(35%, 35%, 35%)" stroke-width="1.0" fill="none"/>
<text x="230.0" y="183.5" text-anchor="middle" font-family="Verdana" font-size="7.5" fill="rgb(0%, 0%, 0%)" >U</text>
<circle cx="240.0" cy="180.5" r="5.0" stroke="none" stroke-width="1.0" fill="rgb(94%, 94%, 94%)"/>
<circle cx="240.0" cy="180.5" r="5.0" stroke="rgb(35%, 35%, 35%)" stroke-width="1.0" fill="none"/>
<text x="240.0" y="183.5" text-anchor="middle" font-family="Verdana" font-size="7.5" fill="rgb(0%, 0%, 0%)" >U</text>
<circle cx="250.0" cy="180.5" r="5.0" stroke="none" stroke-width="1.0" fill="rgb(94%, 94%, 94%)"/>
<circle cx="250.0" cy="180.5" r="5.0" stroke="rgb(35%, 35%, 35%)" stroke-width="1.0" fill="none"/>
<text x="250.0" y="183.5" text-anchor="middle" font-family="Verdana" font-size="7.5" fill="rgb(0%, 0%, 0%)" >A</text>
<circle cx="260.0" cy="180.5" r="5.0" stroke="none" stroke-width="1.0" fill="rgb(94%, 94%, 94%)"/>
<circle cx="260.0" cy="180.5" r="5.0" stroke="rgb(35%, 35%, 35%)" stroke-width="1.0" fill="none"/>
<text x="260.0" y="183.5" text-anchor="middle" font-family="Verdana" font-size="7.5" fill="rgb(0%, 0%, 0%)" >C</text>
<circle cx="270.0" cy="180.5" r="5.0" stroke="none" stroke-width="1.0" fill="rgb(94%, 94%, 94%)"/>
<circle cx="270.0" cy="180.5" r="5.0" stroke="rgb(35%, 35%, 35%)" stroke-width="1.0" fill="none"/>
<text x="270.0" y="183.5" text-anchor="middle" font-family="Verdana" font-size="7.5" fill="rgb(0%, 0%, 0%)" >A</text>
<circle cx="280.0" cy="180.5" r="5.0" stroke="none" stroke-width="1.0" fill="rgb(94%, 94%, 94%)"/>
<circle cx="280.0" cy="180.5" r="5.0" stroke="rgb(35%, 35%, 35%)" stroke-width="1.0" fill="none"/>
<text x="280.0" y="183.5" text-anchor="middle" font-family="Verdana" font-size="7.5" fill="rgb(0%, 0%, 0%)" >C</text>
<circle cx="290.0" cy="180.5" r="5.0" stroke="none" stroke-width="1.0" fill="rgb(94%, 94%, 94%)"/>
<circle cx="290.0" cy="180.5" r="5.0" stroke="rgb(35%, 35%, 35%)" stroke-width="1.0" fill="none"/>
<text x="290.0" y="183.5" text-anchor="middle" font-family="Verdana" font-size="7.5" fill="rgb(0%, 0%, 0%)" >C</text>
<circle cx="300.0" cy="180.5" r="5.0" stroke="none" stroke-width="1.0" fill="rgb(94%, 94%, 94%)"/>
<circle cx="300.0" cy="180.5" r="5.0" stroke="rgb(35%, 35%, 35%)" stroke-width="1.0" fill="none"/>
<text x="300.0" y="183.5" text-anchor="middle" font-family="Verdana" font-size="7.5" fill="rgb(0%, 0%, 0%)" >G</text>
<circle cx="310.0" cy="180.5" r="5.0" stroke="none" stroke-width="1.0" fill="rgb(94%, 94%, 94%)"/>
<circle cx="310.0" cy="180.5" r="5.0" stroke="rgb(35%, 35%, 35%)" stroke-width="1.0" fill="none"/>
<text x="310.0" y="183.5" text-anchor="middle" font-family="Verdana" font-size="7.5" fill="rgb(0%, 0%, 0%)" >U</text>
<circle cx="320.0" cy="180.5" r="5.0" stroke="none" stroke-width="1.0" fill="rgb(94%, 94%, 94%)"/>
<circle cx="320.0" cy="180.5" r="5.0" stroke="rgb(35%, 35%, 35%)" stroke-width="1.0" fill="none"/>
<text x="320.0" y="183.5" text-anchor="middle" font-family="Verdana" font-size="7.5" fill="rgb(0%, 0%, 0%)" >G</text>
<circle cx="330.0" cy="180.5" r="5.0" stroke="none" stroke-width="1.0" fill="rgb(94%, 94%, 94%)"/>
<circle cx="330.0" cy="180.5" r="5.0" stroke="rgb(35%, 35%, 35%)" stroke-width="1.0" fill="none"/>
<text x="330.0" y="183.5" text-anchor="middle" font-family="Verdana" font-size="7.5" fill="rgb(0%, 0%, 0%)" >C</text>
<circle cx="340.0" cy="180.5" r="5.0" stroke="none" stroke-width="1.0" fill="rgb(94%, 94%, 94%)"/>
<circle cx="340.0" cy="180.5" r="5.0" stroke="rgb(35%, 35%, 35%)" stroke-width="1.0" fill="none"/>
<text x="340.0" y="183.5" text-anchor="middle" font-family="Verdana" font-size="7.5" fill="rgb(0%, 0%, 0%)" >G</text>
<circle cx="350.0" cy="180.5" r="5.0" stroke="none" stroke-width="1.0" fill="rgb(94%, 94%, 94%)"/>
<circle cx="350.0" cy="180.5" r="5.0" stroke="rgb(35%, 35%, 35%)" stroke-width="1.0" fill="none"/>
<text x="350.0" y="183.5" text-anchor="middle" font-family="Verdana" font-size="7.5" fill="rgb(0%, 0%, 0%)" >G</text>
<circle cx="360.0" cy="180.5" r="5.0" stroke="none" stroke-width="1.0" fill="rgb(94%, 94%, 94%)"/>
<circle cx="360.0" cy="180.5" r="5.0" stroke="rgb(35%, 35%, 35%)" stroke-width="1.0" fill="none"/>
<text x="360.0" y="183.5" text-anchor="middle" font-family="Verdana" font-size="7.5" fill="rgb(0%, 0%, 0%)" >C</text>
<circle cx="370.0" cy="180.5" r="5.0" stroke="none" stroke-width="1.0" fill="rgb(94%, 94%, 94%)"/>
<circle cx="370.0" cy="180.5" r="5.0" stroke="rgb(35%, 35%, 35%)" stroke-width="1.0" fill="none"/>
<text x="370.0" y="183.5" text-anchor="middle" font-family="Verdana" font-size="7.5" fill="rgb(0%, 0%, 0%)" >A</text>
<circle cx="380.0" cy="180.5" r="5.0" stroke="none" stroke-width="1.0" fill="rgb(94%, 94%, 94%)"/>
<circle cx="380.0" cy="180.5" r="5.0" stroke="rgb(35%, 35%, 35%)" stroke-width="1.0" fill="none"/>
<text x="380.0" y="183.5" text-anchor="middle" font-family="Verdana" font-size="7.5" fill="rgb(0%, 0%, 0%)" >C</text>
<circle cx="390.0" cy="180.5" r="5.0" stroke="none" stroke-width="1.0" fill="rgb(94%, 94%, 94%)"/>
<circle cx="390.0" cy="180.5" r="5.0" stroke="rgb(35%, 35%, 35%)" stroke-width="1.0" fill="none"/>
<text x="390.0" y="183.5" text-anchor="middle" font-family="Verdana" font-size="7.5" fill="rgb(0%, 0%, 0%)" >A</text>
<circle cx="400.0" cy="180.5" r="5.0" stroke="none" stroke-width="1.0" fill="rgb(94%, 94%, 94%)"/>
<circle cx="400.0" cy="180.5" r="5.0" stroke="rgb(35%, 35%, 35%)" stroke-width="1.0" fill="none"/>
<text x="400.0" y="183.5" text-anchor="middle" font-family="Verdana" font-size="7.5" fill="rgb(0%, 0%, 0%)" >G</text>
<circle cx="410.0" cy="180.5" r="5.0" stroke="none" stroke-width="1.0" fill="rgb(94%, 94%, 94%)"/>
<circle cx="410.0" cy="180.5" r="5.0" stroke="rgb(35%, 35%, 35%)" stroke-width="1.0" fill="none"/>
<text x="410.0" y="183.5" text-anchor="middle" font-family="Verdana" font-size="7.5" fill="rgb(0%, 0%, 0%)" >G</text>
<circle cx="420.0" cy="180.5" r="5.0" stroke="none" stroke-width="1.0" fill="rgb(94%, 94%, 94%)"/>
<circle cx="420.0" cy="180.5" r="5.0" stroke="rgb(35%, 35%, 35%)" stroke-width="1.0" fill="none"/>
<text x="420.0" y="183.5" text-anchor="middle" font-family="Verdana" font-size="7.5" fill="rgb(0%, 0%, 0%)" >C</text>
<circle cx="430.0" cy="180.5" r="5.0" stroke="none" stroke-width="1.0" fill="rgb(94%, 94%, 94%)"/>
<circle cx="430.0" cy="180.5" r="5.0" stroke="rgb(35%, 35%, 35%)" stroke-width="1.0" fill="none"/>
<text x="430.0" y="183.5" text-anchor="middle" font-family="Verdana" font-size="7.5" fill="rgb(0%, 0%, 0%)" >A</text>
<circle cx="440.0" cy="180.5" r="5.0" stroke="none" stroke-width="1.0" fill="rgb(94%, 94%, 94%)"/>
<circle cx="440.0" cy="180.5" r="5.0" stroke="rgb(35%, 35%, 35%)" stroke-width="1.0" fill="none"/>
<text x="440.0" y="183.5" text-anchor="middle" font-family="Verdana" font-size="7.5" fill="rgb(0%, 0%, 0%)" >C</text>
<circle cx="450.0" cy="180.5" r="5.0" stroke="none" stroke-width="1.0" fill="rgb(94%, 94%, 94%)"/>
<circle cx="450.0" cy="180.5" r="5.0" stroke="rgb(35%, 35%, 35%)" stroke-width="1.0" fill="none"/>
<text x="450.0" y="183.5" text-anchor="middle" font-family="Verdana" font-size="7.5" fill="rgb(0%, 0%, 0%)" >U</text>
<circle cx="460.0" cy="180.5" r="5.0" stroke="none" stroke-width="1.0" fill="rgb(94%, 94%, 94%)"/>
<circle cx="460.0" cy="180.5" r="5.0" stroke="rgb(35%, 35%, 35%)" stroke-width="1.0" fill="none"/>
<text x="460.0" y="183.5" text-anchor="middle" font-family="Verdana" font-size="7.5" fill="rgb(0%, 0%, 0%)" >A</text>
<circle cx="470.0" cy="180.5" r="5.0" stroke="none" stroke-width="1.0" fill="rgb(94%, 94%, 94%)"/>
<circle cx="470.0" cy="180.5" r="5.0" stroke="rgb(35%, 35%, 35%)" stroke-width="1.0" fill="none"/>
<text x="470.0" y="183.5" text-anchor="middle" font-family="Verdana" font-size="7.5" fill="rgb(0%, 0%, 0%)" >G</text>
<circle cx="480.0" cy="180.5" r="5.0" stroke="none" stroke-width="1.0" fill="rgb(94%, 94%, 94%)"/>
<circle cx="480.0" cy="180.5" r="5.0" stroke="rgb(35%, 35%, 35%)" stroke-width="1.0" fill="none"/>
<text x="480.0" y="183.5" text-anchor="middle" font-family="Verdana" font-size="7.5" fill="rgb(0%, 0%, 0%)" >U</text>
<circle cx="490.0" cy="180.5" r="5.0" stroke="none" stroke-width="1.0" fill="rgb(94%, 94%, 94%)"/>
<circle cx="490.0" cy="180.5" r="5.0" stroke="rgb(35%, 35%, 35%)" stroke-width="1.0" fill="none"/>
<text x="490.0" y="183.5" text-anchor="middle" font-family="Verdana" font-size="7.5" fill="rgb(0%, 0%, 0%)" >A</text>
<circle cx="500.0" cy="180.5" r="5.0" stroke="none" stroke-width="1.0" fill="rgb(94%, 94%, 94%)"/>
<circle cx="500.0" cy="180.5" r="5.0" stroke="rgb(35%, 35%, 35%)" stroke-width="1.0" fill="none"/>
<text x="500.0" y="183.5" text-anchor="middle" font-family="Verdana" font-size="7.5" fill="rgb(0%, 0%, 0%)" >C</text>
<circle cx="510.0" cy="180.5" r="5.0" stroke="none" stroke-width="1.0" fill="rgb(94%, 94%, 94%)"/>
<circle cx="510.0" cy="180.5" r="5.0" stroke="rgb(35%, 35%, 35%)" stroke-width="1.0" fill="none"/>
<text x="510.0" y="183.5" text-anchor="middle" font-family="Verdana" font-size="7.5" fill="rgb(0%, 0%, 0%)" >U</text>
<circle cx="520.0" cy="180.5" r="5.0" stroke="none" stroke-width="1.0" fill="rgb(94%, 94%, 94%)"/>
<circle cx="520.0" cy="180.5" r="5.0" stroke="rgb(35%, 35%, 35%)" stroke-width="1.0" fill="none"/>
<text x="520.0" y="183.5" text-anchor="middle" font-family="Verdana" font-size="7.5" fill="rgb(0%, 0%, 0%)" >G</text>
<circle cx="530.0" cy="180.5" r="5.0" stroke="none" stroke-width="1.0" fill="rgb(94%, 94%, 94%)"/>
<circle cx="530.0" cy="180.5" r="5.0" stroke="rgb(35%, 35%, 35%)" stroke-width="1.0" fill="none"/>
<text x="530.0" y="183.5" text-anchor="middle" font-family="Verdana" font-size="7.5" fill="rgb(0%, 0%, 0%)" >A</text>
<circle cx="540.0" cy="180.5" r="5.0" stroke="none" stroke-width="1.0" fill="rgb(94%, 94%, 94%)"/>
<circle cx="540.0" cy="180.5" r="5.0" stroke="rgb(35%, 35%, 35%)" stroke-width="1.0" fill="none"/>
<text x="540.0" y="183.5" text-anchor="middle" font-family="Verdana" font-size="7.5" fill="rgb(0%, 0%, 0%)" >U</text>
<circle cx="550.0" cy="180.5" r="5.0" stroke="none" stroke-width="1.0" fill="rgb(94%, 94%, 94%)"/>
<circle cx="550.0" cy="180.5" r="5.0" stroke="rgb(35%, 35%, 35%)" stroke-width="1.0" fill="none"/>
<text x="550.0" y="183.5" text-anchor="middle" font-family="Verdana" font-size="7.5" fill="rgb(0%, 0%, 0%)" >G</text>
<circle cx="560.0" cy="180.5" r="5.0" stroke="none" stroke-width="1.0" fill="rgb(94%, 94%, 94%)"/>
<circle cx="560.0" cy="180.5" r="5.0" stroke="rgb(35%, 35%, 35%)" stroke-width="1.0" fill="none"/>
<text x="560.0" y="183.5" text-anchor="middle" font-family="Verdana" font-size="7.5" fill="rgb(0%, 0%, 0%)" >U</text>
<circle cx="570.0" cy="180.5" r="5.0" stroke="none" stroke-width="1.0" fill="rgb(94%, 94%, 94%)"/>
<circle cx="570.0" cy="180.5" r="5.0" stroke="rgb(35%, 35%, 35%)" stroke-width="1.0" fill="none"/>
<text x="570.0" y="183.5" text-anchor="middle" font-family="Verdana" font-size="7.5" fill="rgb(0%, 0%, 0%)" >C</text>
<circle cx="580.0" cy="180.5" r="5.0" stroke="none" stroke-width="1.0" fill="rgb(94%, 94%, 94%)"/>
<circle cx="580.0" cy="180.5" r="5.0" stroke="rgb(35%, 35%, 35%)" stroke-width="1.0" fill="none"/>
<text x="580.0" y="183.5" text-anchor="middle" font-family="Verdana" font-size="7.5" fill="rgb(0%, 0%, 0%)" >G</text>
<circle cx="590.0" cy="180.5" r="5.0" stroke="none" stroke-width="1.0" fill="rgb(94%, 94%, 94%)"/>
<circle cx="590.0" cy="180.5" r="5.0" stroke="rgb(35%, 35%, 35%)" stroke-width="1.0" fill="none"/>
<text x="590.0" y="183.5" text-anchor="middle" font-family="Verdana" font-size="7.5" fill="rgb(0%, 0%, 0%)" >U</text>
<circle cx="600.0" cy="180.5" r="5.0" stroke="none" stroke-width="1.0" fill="rgb(94%, 94%, 94%)"/>
<circle cx="600.0" cy="180.5" r="5.0" stroke="rgb(35%, 35%, 35%)" stroke-width="1.0" fill="none"/>
<text x="600.0" y="183.5" text-anchor="middle" font-family="Verdana" font-size="7.5" fill="rgb(0%, 0%, 0%)" >A</text>
<circle cx="610.0" cy="180.5" r="5.0" stroke="none" stroke-width="1.0" fill="rgb(94%, 94%, 94%)"/>
<circle cx="610.0" cy="180.5" r="5.0" stroke="rgb(35%, 35%, 35%)" stroke-width="1.0" fill="none"/>
<text x="610.0" y="183.5" text-anchor="middle" font-family="Verdana" font-size="7.5" fill="rgb(0%, 0%, 0%)" >U</text>
<circle cx="620.0" cy="180.5" r="5.0" stroke="none" stroke-width="1.0" fill="rgb(94%, 94%, 94%)"/>
<circle cx="620.0" cy="180.5" r="5.0" stroke="rgb(35%, 35%, 35%)" stroke-width="1.0" fill="none"/>
<text x="620.0" y="183.5" text-anchor="middle" font-family="Verdana" font-size="7.5" fill="rgb(0%, 0%, 0%)" >A</text>
<circle cx="630.0" cy="180.5" r="5.0" stroke="none" stroke-width="1.0" fill="rgb(94%, 94%, 94%)"/>
<circle cx="630.0" cy="180.5" r="5.0" stroke="rgb(35%, 35%, 35%)" stroke-width="1.0" fill="none"/>
<text x="630.0" y="183.5" text-anchor="middle" font-family="Verdana" font-size="7.5" fill="rgb(0%, 0%, 0%)" >C</text>
<circle cx="640.0" cy="180.5" r="5.0" stroke="none" stroke-width="1.0" fill="rgb(94%, 94%, 94%)"/>
<circle cx="640.0" cy="180.5" r="5.0" stroke="rgb(35%, 35%, 35%)" stroke-width="1.0" fill="none"/>
<text x="640.0" y="183.5" text-anchor="middle" font-family="Verdana" font-size="7.5" fill="rgb(0%, 0%, 0%)" >A</text>
<circle cx="650.0" cy="180.5" r="5.0" stroke="none" stroke-width="1.0" fill="rgb(94%, 94%, 94%)"/>
<circle cx="650.0" cy="180.5" r="5.0" stroke="rgb(35%, 35%, 35%)" stroke-width="1.0" fill="none"/>
<text x="650.0" y="183.5" text-anchor="middle" font-family="Verdana" font-size="7.5" fill="rgb(0%, 0%, 0%)" >G</text>
<circle cx="660.0" cy="180.5" r="5.0" stroke="none" stroke-width="1.0" fill="rgb(94%, 94%, 94%)"/>
<circle cx="660.0" cy="180.5" r="5.0" stroke="rgb(35%, 35%, 35%)" stroke-width="1.0" fill="none"/>
<text x="660.0" y="183.5" text-anchor="middle" font-family="Verdana" font-size="7.5" fill="rgb(0%, 0%, 0%)" >G</text>
<circle cx="670.0" cy="180.5" r="5.0" stroke="none" stroke-width="1.0" fill="rgb(94%, 94%, 94%)"/>
<circle cx="670.0" cy="180.5" r="5.0" stroke="rgb(35%, 35%, 35%)" stroke-width="1.0" fill="none"/>
<text x="670.0" y="183.5" text-anchor="middle" font-family="Verdana" font-size="7.5" fill="rgb(0%, 0%, 0%)" >G</text>
<circle cx="680.0" cy="180.5" r="5.0" stroke="none" stroke-width="1.0" fill="rgb(94%, 94%, 94%)"/>
<circle cx="680.0" cy="180.5" r="5.0" stroke="rgb(35%, 35%, 35%)" stroke-width="1.0" fill="none"/>
<text x="680.0" y="183.5" text-anchor="middle" font-family="Verdana" font-size="7.5" fill="rgb(0%, 0%, 0%)" >C</text>
<circle cx="690.0" cy="180.5" r="5.0" stroke="none" stroke-width="1.0" fill="rgb(94%, 94%, 94%)"/>
<circle cx="690.0" cy="180.5" r="5.0" stroke="rgb(35%, 35%, 35%)" stroke-width="1.0" fill="none"/>
<text x="690.0" y="183.5" text-anchor="middle" font-family="Verdana" font-size="7.5" fill="rgb(0%, 0%, 0%)" >U</text>
<line x1="10.0" y1="188.0" x2="10.0" y2="193.0" stroke="rgb(25%, 25%, 25%)" stroke-width="1.0" />
<text x="10.0" y="203.5" text-anchor="middle" font-family="Verdana" font-size="7.5" fill="rgb(25%, 25%, 25%)" >1</text>
<line x1="100.0" y1="188.0" x2="100.0" y2="193.0" stroke="rgb(25%, 25%, 25%)" stroke-width="1.0" />
<text x="100.0" y="203.5" text-anchor="middle" font-family="Verdana" font-size="7.5" fill="rgb(25%, 25%, 25%)" >10</text>
<line x1="200.0" y1="188.0" x2="200.0" y2="193.0" stroke="rgb(25%, 25%, 25%)" stroke-width="1.0" />
<text x="200.0" y="203.5" text-anchor="middle" font-family="Verdana" font-size="7.5" fill="rgb(25%, 25%, 25%)" >20</text>
<line x1="300.0" y1="188.0" x2="300.0" y2="193.0" stroke="rgb(25%, 25%, 25%)" stroke-width="1.0" />
<text x="300.0" y="203.5" text-anchor="middle" font-family="Verdana" font-size="7.5" fill="rgb(25%, 25%, 25%)" >30</text>
<line x1="400.0" y1="188.0" x2="400.0" y2="193.0" stroke="rgb(25%, 25%, 25%)" stroke-width="1.0" />
<text x="400.0" y="203.5" text-anchor="middle" font-family="Verdana" font-size="7.5" fill="rgb(25%, 25%, 25%)" >40</text>
<line x1="500.0" y1="188.0" x2="500.0" y2="193.0" stroke="rgb(25%, 25%, 25%)" stroke-width="1.0" />
<text x="500.0" y="203.5" text-anchor="middle" font-family="Verdana" font-size="7.5" fill="rgb(25%, 25%, 25%)" >50</text>
<line x1="600.0" y1="188.0" x2="600.0" y2="193.0" stroke="rgb(25%, 25%, 25%)" stroke-width="1.0" />
<text x="600.0" y="203.5" text-anchor="middle" font-family="Verdana" font-size="7.5" fill="rgb(25%, 25%, 25%)" >60</text>
<line x1="690.0" y1="188.0" x2="690.0" y2="193.0" stroke="rgb(25%, 25%, 25%)" stroke-width="1.0" />
<text x="690.0" y="203.5" text-anchor="middle" font-family="Verdana" font-size="7.5" fill="rgb(25%, 25%, 25%)" >69</text>
<text x="350.0" y="221.7" text-anchor="middle" font-family="Verdana" font-size="18.0" fill="rgb(0%, 0%, 0%)" >User file #3</text>
</svg>
